<svg xmlns="http://www.w3.org/2000/svg" width="38" height="38">
    <path fill="#FFF" fill-rule="evenodd" d="M19 37.998c-10.477 0-19.002-8.524-19.002-19C-.002 8.521 8.523-.004 19-.004c10.477 0 18.999 8.525 18.999 19.002 0 10.476-8.522 19-18.999 19zm0-36.003c-9.376 0-17.003 7.628-17.003 17.003 0 3.868 1.314 7.427 3.498 10.287l.939-.507c1.436-.635 4.942-1.909 7.411-2.669v-.092c0-.729-.073-1.244-.228-1.57-.277-.586-.644-1.612-.821-2.676-.531-.718-.929-1.723-1.183-2.995-.295-1.471-.194-2.174.082-2.888.033-.228-.038-1.681-.258-2.885-.23-1.277.128-3.424 1.46-5.127.898-1.147 2.6-2.553 5.618-2.744l1.536-.005c3.124.195 4.833 1.602 5.732 2.748 1.337 1.709 1.692 3.857 1.455 5.13-.216 1.214-.286 2.66-.255 2.92.275.677.378 1.379.084 2.849-.256 1.276-.654 2.283-1.185 2.997-.173 1.056-.543 2.084-.823 2.677-.227.483-.462 1.048-.462 1.538v.091c2.372.723 5.795 1.916 7.351 2.568l.759.366c2.06-2.813 3.292-6.268 3.292-10.013 0-9.375-7.626-17.003-16.999-17.003z"/>
</svg>
